<svg xmlns="http://www.w3.org/2000/svg" viewBox="0 0 675.71 675.82"><defs><style>.cls-1{fill:#e6d0bd;}.cls-2{fill:#6a80b9;}.cls-3{fill:#7aa7d4;}.cls-4{fill:#f5b08c;}.cls-5{fill:#f28c65;}.cls-6{fill:#e9a150;}</style></defs><title>avatar1</title><g id="Capa_2" data-name="Capa 2"><g id="Layer_1" data-name="Layer 1"><path class="cls-1" d="M675.71,337.86A337,337,0,0,1,557.53,594.53q-2.46,2.12-4.92,4.08a325.71,325.71,0,0,1-29.36,21.76A338,338,0,0,1,293,672.71c-1-.14-1.93-.23-2.91-.42A333.21,333.21,0,0,1,231.4,658.5a10.69,10.69,0,0,0-1.18-.37c-.65-.24-1.26-.47-1.92-.66s-1-.33-1.5-.52a336,336,0,0,1-110.73-64.39c-1-.79-1.92-1.64-2.86-2.48-.14-.14-.33-.28-.47-.43v0a336.41,336.41,0,0,1-33.81-34.89c-.94-1.08-1.83-2.16-2.72-3.24-1.22-1.55-2.49-3.05-3.7-4.6-.38-.47-.76-1-1.13-1.45v0l-2.72-3.56c-1.36-1.74-2.63-3.47-3.94-5.3A336,336,0,0,1,0,337.86C0,151.39,151.44,0,337.86,0,524.61,0,675.71,151.39,675.71,337.86Z"/><path class="cls-2" d="M553.45,598.72a323.81,323.81,0,0,1-29.36,21.76,338,338,0,0,1-230.27,52.34c-1-.14-1.93-.23-2.91-.42a333.21,333.21,0,0,1-58.67-13.79,11.25,11.25,0,0,0-1.17-.37c-.66-.24-1.27-.47-1.93-.66-.51-.19-1-.33-1.5-.52a335.82,335.82,0,0,1-110.72-64.39c-1-.79-1.93-1.64-2.86-2.48-.15-.14-.33-.28-.47-.42v0a334.49,334.49,0,0,1-33.82-34.89c-.94-1.08-1.83-2.16-2.72-3.24-1.22-1.55-2.48-3.05-3.7-4.6a314.14,314.14,0,0,1,29.54-32.17c63.5-60.69,187.78-60.69,187.78-60.69,5.45,31,22.61,34.71,47.75,40.24s54.49-3.65,62.33-23.16c29.68-7.51,126,43.1,146.88,108.66C549.09,584.28,551.15,590.89,553.45,598.72Z"/><path class="cls-3" d="M250.12,665.23c-.74-.25-1.43-.51-2.16-.71l-1.69-.56c-.59-11-1.29-22.18-2.25-33.05-3.72-41.83-8.14-74.86-22.65-92.06-23.38-27.74-51.88-34.27-93-20.52-16,5.33-32.93,18.64-47.83,37.18-1-1.14-2-2.27-3-3.4,20.5-24.9,46-41.44,75.35-44.74,38.89-4.43,62.93,13.87,76.05,35.29,8,13.06,10.86,28,14,37.74C246.63,591.84,248.88,628.3,250.12,665.23Z"/><path class="cls-4" d="M410.8,399.11s-1.68,53.08-5.62,77.34c-3.59,22.11-22.1,35.41-66.89,28.36-27.14-4.28-62.8-29.58-58.88-49.84,4.24-21.94,6.51-64.86,3.69-102.12-.75-13.12-1-10.43-4-29.28-1.6-10-.41-15.51.05-20.4.27-7.78,4.76-10.42,11.77-9,.42,0,.63,0,.84.22,18.26,4.13,53.14,32.4,83.14,60.4a11.88,11.88,0,0,1,1.69,1.35C405.29,383,412.33,393.34,410.8,399.11Z"/><path class="cls-5" d="M410.57,413.11c0,7.28-1.86,27.93-1.86,27.93s-43-6.9-75.24-26.89c-36.88-22.86-50.15-95.54-48.25-95.78.43,0,.64,0,.85.2,1.09,1.47,44.13,29.75,84.18,55.94a12.19,12.19,0,0,1,1.72,1.25C401.17,400.83,410.55,411,410.57,413.11Z"/><path class="cls-4" d="M285.61,328.4s17.56,62.69,53.25,78.32c21.14,9.26,39.32,7.2,57.88,10.57,31.06,5.65,63.37,5.57,73.59-5.3,6.17-6.57,7.95-18.41,4.26-25.19-3.84-7.08-.6-5,2-11.83,2.12-5.44,7.66-12.1,1.15-15.07s-14.69-.29-14.69-.29,20.25-2.82,15.89-13.28c-2.76-6.62-6.06-18.33,4.87-19.24,20.77-1.72,14.65-17.4,10.23-27.51-3.68-8.39-3.68-8.39-9.6-21.82-3-6.69-9.49-16.68-9.8-23.55C474,239,484.23,237.12,481.25,226c-4.44-16.65-8.16-45.87-15.66-59.86-12.2-22.75-20-30-45.72-45.5-41.39-25-122.25-31.74-162.76-7.39-70.68,42.48-60.22,74.76-54.92,112.68,5.12,36.55,27,78.87,56.59,83.42C277.75,312.22,285.61,328.4,285.61,328.4Z"/><path class="cls-5" d="M469.17,175.09c-7.67-2.48-10.89,1.21-25.41,17.15-7.84,8.61-29,36.85-46.95,45.9-57.61,29,49.87-97,49.87-97l25.16,27.07Z"/><path class="cls-6" d="M284.35,386l-.44-19.43-2.19-50.5s-34.28-56.5-.84-62,29.6,48.24,29.6,48.24,4.42,1.08,17.55-3.17c9.9-3.2,8.07-35,20.47-41.75,30.73-16.6,47.51-7.73,64.2-46.54,20.3-47.19,45.77-74.18,56.47-39.58,4.5,14.53,18.37-28.17,6.47-53.59-8.41-18-44.55-18-47.75-18.66C404.37,94.32,289,79.25,254.17,105.36c-22.34,16.76-70.44,57.1-62.28,114.19,4.12,28.87,36,78.54,71.7,110.57C288.3,352.32,278.42,386,284.35,386Z"/><path class="cls-6" d="M226.44,310s38.29-43.86,126.72-54.76,95.2-127.68,114.26-84.6c8.26,18.66,19.28-26,8.37-52.83-8.35-20.56-33-14.72-41.1-16.66C394.45,91.53,310.26,83.83,267,98.94s-78,79.63-76,102.83,9.77,84.19,19,97.62S226.44,310,226.44,310Z"/></g></g></svg>